<?xml version="1.0" encoding="utf-8"?>
<!-- Generator: Adobe Illustrator 25.2.0, SVG Export Plug-In . SVG Version: 6.00 Build 0)  -->
<svg version="1.1" id="Layer_1" xmlns="http://www.w3.org/2000/svg" xmlns:xlink="http://www.w3.org/1999/xlink" x="0px" y="0px"
	 viewBox="0 0 24 24" style="enable-background:new 0 0 24 24;" xml:space="preserve">
<style type="text/css">
	.st0{fill:#FF0303;}
	.st1{fill:#C0C0C0;}
	.st2{fill:#414141;}
	.st3{fill:#FFFFFF;}
</style>
<g id="brush-4">
	<path class="st0" d="M13.1,5.5l-7.5,5.7c-0.6,1.2-0.4,3.5,0.8,4.3l6.3,6.3l3.5-1.8l-6.3-7.5c-0.3-0.3-0.3-0.8-0.1-1.2L13.1,5.5z"/>
	<path class="st1" d="M14.2,17.8c1-1.4,1.9-1,2.3-0.6s0.8,1.6-0.2,2.8c-1,0.8-2.3,1.4-3.5,1.8C13,20.2,13.5,19.1,14.2,17.8z"/>
	<path class="st2" d="M24,1.9l-9.8,15.8l2,2.4l7.8-7.4V1.9z"/>
	<path class="st3" d="M16.1,19.1l7.4-6.8l-1.4-1.6c-5.1,5.7-5.1,6.1-6.6,7.7L16.1,19.1z"/>
</g>
</svg>
