<?xml version="1.0" encoding="utf-8"?>
<!-- Generator: Adobe Illustrator 25.2.0, SVG Export Plug-In . SVG Version: 6.00 Build 0)  -->
<svg version="1.1" id="Layer_1" xmlns="http://www.w3.org/2000/svg" xmlns:xlink="http://www.w3.org/1999/xlink" x="0px" y="0px"
	 viewBox="0 0 24 24" style="enable-background:new 0 0 24 24;" xml:space="preserve">
<style type="text/css">
	.st0{fill:#FF0303;}
	.st1{fill:#C0C0C0;}
	.st2{fill:#414141;}
	.st3{fill:#FFFFFF;}
</style>
<g id="brush-5">
	<path class="st0" d="M14.5,5.1l-7.9,8c-0.4,0.8-0.4,2.1,0.4,2.7l5.7,5.9l3.8-2.6L10.8,14c-0.3-0.3-0.5-0.8-0.3-1.4L14.5,5.1z"/>
	<path class="st1" d="M14.4,18.9c1-0.9,1.7-0.9,2.1-0.4c0.4,0.3,0.4,1.1-0.6,1.9c-0.8,0.8-1.9,1.2-3.1,1.5
		C13.1,20.7,13.5,19.7,14.4,18.9z"/>
	<polygon class="st2" points="24,1.9 15.4,18.2 16.4,19.7 24,13.2 	"/>
	<polygon class="st3" points="16.5,19 23.6,13.5 23.2,12.7 16.5,18.7 	"/>
</g>
</svg>
