<?xml version="1.0" encoding="utf-8"?>
<!-- Generator: Adobe Illustrator 25.2.0, SVG Export Plug-In . SVG Version: 6.00 Build 0)  -->
<svg version="1.1" id="Layer_1" xmlns="http://www.w3.org/2000/svg" xmlns:xlink="http://www.w3.org/1999/xlink" x="0px" y="0px"
	 viewBox="0 0 24 24" style="enable-background:new 0 0 24 24;" xml:space="preserve">
<style type="text/css">
	.st0{opacity:0.9;fill:#F45205;enable-background:new    ;}
	.st1{display:none;fill:#C0C0C0;}
	.st2{display:none;fill:#F45205;}
	.st3{fill:#C0C0C0;}
	.st4{fill:#414141;}
	.st5{fill:#F45205;}
	.st6{fill:#FFFFFF;}
</style>
<path id="color" class="st0" d="M15.2,18.7l-0.6,0.8c-1.1,1.2-2.9,1.3-4.1,0.3h-0.1l-6.9-6.5c-0.8-0.8-0.8-2.2,0-3l10.6-6l-7.5,6.4
	c-0.6,0.8,0.8,1.9,1.7,2.5L15.2,18.7z"/>
<path class="st1" d="M14.9,17.2l-1.9,3c-0.3,0.3,0.2,0.9,0.6,0.6l3-1.7L14.9,17.2z"/>
<polygon class="st2" points="16.6,15.2 14.8,17.5 16.6,19.1 18.5,17.2 "/>
<image style="display:none;overflow:visible;" width="154" height="142" xlink:href="../../3.PNG"  transform="matrix(0.1509 0 0 0.1761 4.4438 0.1635)">
</image>
<path class="st3" d="M15.7,12c1,0.7,1.2,2.2,2.2,2.9l2.3,2.1c-1.8,1.3-7.7,4.8-8.7,3.9C10.7,19.9,13.7,14.7,15.7,12z"/>
<path class="st4" d="M41.9,3l-9.2,8c-0.2,0.2-0.4,0.3-0.6,0.5c-1.8,1.5-3.7,2.7-5.7,3.7c-1.3,0.7-2.7,1.2-4.1,1.7l-3.9,1.3
	c-0.7-0.8-0.3-2.1-1-2.9c-0.6-0.8-2.3-1-3-1.7c0.5-1.2,0.9-2.3,1.4-3.5c0.5-1.3,1.1-2.5,1.8-3.7c1.1-1.9,2.4-3.7,4-5.4
	c0.1-0.2,0.3-0.3,0.4-0.4l9.2-9.2L41.9,3z"/>
<path class="st5" d="M32.1,11.5c-1.8,1.5-3.7,2.7-5.7,3.7l-8.8-8.8c1.1-1.9,2.4-3.7,4-5.4l0,0L32.1,11.5z"/>
<polygon id="shadow" class="st6" points="20.6,15.4 31.5,6.5 30,5.4 19.9,15 "/>
</svg>
