<svg id="Layer_1" data-name="Layer 1" xmlns="http://www.w3.org/2000/svg" viewBox="0 0 24 24"><defs><style>.cls-1{fill:#f45205;}.cls-2{fill:silver;}.cls-3{fill:#414141;}.cls-4{fill:#fff;}</style></defs><g id="brush-5"><path class="cls-1" d="M11.5,3.8,1.1,13.3a2.5,2.5,0,0,0,.6,3.2l7.4,6.9,5-3L6.6,14.3a1.4,1.4,0,0,1-.3-1.6Z"/><path class="cls-2" d="M11.4,20.1c1.3-1,2.2-1,2.7-.4s.6,1.3-.7,2.2a9,9,0,0,1-4.1,1.8A6.7,6.7,0,0,1,11.4,20.1Z"/><polygon class="cls-3" points="24 0 12.7 19.3 14 21.1 24 13.4 24 0"/><polygon class="cls-4" points="14.1 20.2 23.5 13.7 22.9 12.8 14.1 19.9 14.1 20.2"/></g></svg>