<?xml version="1.0" encoding="utf-8"?>
<!-- Generator: Adobe Illustrator 25.2.0, SVG Export Plug-In . SVG Version: 6.00 Build 0)  -->
<svg version="1.1" id="Layer_1" xmlns="http://www.w3.org/2000/svg" xmlns:xlink="http://www.w3.org/1999/xlink" x="0px" y="0px"
	 viewBox="0 0 24 24" style="enable-background:new 0 0 24 24;" xml:space="preserve">
<style type="text/css">
	.st0{fill:#FF0303;}
	.st1{fill:#C0C0C0;}
	.st2{fill:#414141;}
	.st3{fill:#FFFFFF;}
</style>
<g id="brush-3">
	<path class="st0" d="M13.5,21.1c0.6-0.8,0.6-1.8-0.2-2.6l-5-4.4c-0.6-0.6-0.9-1.1-0.8-2l5-7.2l-8.3,7.5c-0.6,1.2,0.2,3.6,1.1,4.2
		l5.9,4.6C12.2,21.7,13.1,21.7,13.5,21.1L13.5,21.1z"/>
	<path class="st1" d="M13.9,17.5c1.1-2.2,3.5-2.4,3.9-1.6c0.2,0.6,0,0.8-0.9,3c-1.1,2.4-3.3,3.6-5.1,2.6
		C13.5,19.8,13,19.1,13.9,17.5z"/>
	<path class="st2" d="M24,1.9c-2.6,3.6-6.4,11.5-7.9,13.6l1.3,2l6.7-7.2L24,1.9L24,1.9z"/>
	<path class="st3" d="M17.3,16.9l6.2-6.7L23,9.8l-5.9,6.7L17.3,16.9z"/>
</g>
</svg>
