<?xml version="1.0" encoding="utf-8"?>
<!-- Generator: Adobe Illustrator 25.2.0, SVG Export Plug-In . SVG Version: 6.00 Build 0)  -->
<svg version="1.1" id="Layer_1" xmlns="http://www.w3.org/2000/svg" xmlns:xlink="http://www.w3.org/1999/xlink" x="0px" y="0px"
	 viewBox="0 0 24 24" style="enable-background:new 0 0 24 24;" xml:space="preserve">
<style type="text/css">
	.st0{opacity:0.9;fill:#F45205;enable-background:new    ;}
	.st1{fill:#C0C0C0;}
	.st2{fill:#F45205;}
	.st3{fill:#414141;}
	.st4{fill:#FFFFFF;}
</style>
<path id="color" class="st0" d="M15.2,18.7l-0.6,0.8c-1,1.2-2.9,1.3-4.1,0.3l-0.1-0.1l-6.9-6.4c-0.8-0.8-0.8-2.2,0-3l10.6-6
	l-7.5,6.4c-0.6,0.8,0.8,1.9,1.7,2.5L15.2,18.7z"/>
<g>
	<path class="st1" d="M14.9,17.2l-2,2.9c-0.2,0.4,0.2,0.9,0.6,0.7l3-1.8L14.9,17.2z"/>
	<polygon class="st2" points="16.6,15.2 14.8,17.5 16.6,19.1 18.5,17.2 	"/>
	<polygon class="st2" points="17,14.3 15.8,15.7 18.4,18 19.6,16.7 	"/>
	<polygon class="st3" points="24.6,4.6 16.8,14.1 19.6,16.9 24.6,11.9 	"/>
	<polygon id="shadow" class="st4" points="20.2,15.4 24.6,10.8 24,10.2 19.9,15.2 	"/>
</g>
</svg>
