<svg id="Layer_1" data-name="Layer 1" xmlns="http://www.w3.org/2000/svg" viewBox="0 0 24 24"><defs><style>.cls-1{fill:#414141;}</style></defs><path class="cls-1" d="M22.2,1.9a3,3,0,0,0-4.4.1L14,5.9a1.3,1.3,0,0,0-1.8.3l-.9.9a1.5,1.5,0,0,0,0,2l.5.5L3.1,18.3a1.9,1.9,0,0,0-.4,1.9L1.4,21.3a1.4,1.4,0,0,0,0,1.5,1.2,1.2,0,0,0,1.4,0v-.2l1.1-1A1.8,1.8,0,0,0,5.9,21l8.7-8.6.5.6a1.7,1.7,0,0,0,2-.1L18,12a1.4,1.4,0,0,0,.4-1.8l3.9-3.8a3.6,3.6,0,0,0-.1-4.5ZM4.9,20.1c-.3.4-.7.5-1,.1H3.8a.9.9,0,0,1,0-1.2l8.6-8.5,1.1,1.1Z"/></svg>