<?xml version="1.0" encoding="utf-8"?>
<!-- Generator: Adobe Illustrator 25.2.0, SVG Export Plug-In . SVG Version: 6.00 Build 0)  -->
<svg version="1.1" id="Layer_1" xmlns="http://www.w3.org/2000/svg" xmlns:xlink="http://www.w3.org/1999/xlink" x="0px" y="0px"
	 viewBox="0 0 24 24" style="enable-background:new 0 0 24 24;" xml:space="preserve">
<style type="text/css">
	.st0{fill:none;}
	.st1{fill:#1894DD;}
</style>
<path class="st0" d="M2,22V2h20v20H2z"/>
<path class="st1" d="M8.4,14c-0.4-0.2-0.9-0.3-1.4-0.3c-1.8,0-3.3,1.5-3.3,3.3s1.5,3.3,3.3,3.3s3.3-1.5,3.3-3.3c0-0.5-0.1-1-0.3-1.4
	l2-2l2,2c-0.2,0.4-0.3,0.9-0.3,1.4c0,1.8,1.5,3.3,3.3,3.3c1.8,0,3.3-1.5,3.3-3.3s-1.5-3.3-3.3-3.3c-0.5,0-0.9,0.1-1.4,0.3l-2-2
	l5.8-5.8V3.7h-0.8L8.4,14z M8.7,17c0,0.9-0.7,1.7-1.7,1.7S5.3,17.9,5.3,17s0.7-1.7,1.7-1.7S8.7,16.1,8.7,17z M18.7,17
	c0,0.9-0.7,1.7-1.7,1.7s-1.7-0.8-1.7-1.7s0.7-1.7,1.7-1.7S18.7,16.1,18.7,17z M12.4,12c0,0.2-0.2,0.4-0.4,0.4
	c-0.2,0-0.4-0.2-0.4-0.4c0-0.2,0.2-0.4,0.4-0.4C12.2,11.6,12.4,11.8,12.4,12z M4.5,6.2l5,5l1.7-1.7L5.3,3.7H4.5V6.2z"/>
</svg>
