<?xml version="1.0" encoding="utf-8"?>
<!-- Generator: Adobe Illustrator 25.2.0, SVG Export Plug-In . SVG Version: 6.00 Build 0)  -->
<svg version="1.1" id="ereaser" xmlns="http://www.w3.org/2000/svg" xmlns:xlink="http://www.w3.org/1999/xlink" x="0px" y="0px"
	 viewBox="0 0 24 24" style="enable-background:new 0 0 24 24;" xml:space="preserve">
<style type="text/css">
	.st0{fill-rule:evenodd;clip-rule:evenodd;fill:#EE483C;}
	.st1{fill-rule:evenodd;clip-rule:evenodd;fill:#AE352C;}
	.st2{fill-rule:evenodd;clip-rule:evenodd;fill:#1380B6;}
</style>
<g id="path-group">
	<path id="path3" class="st0" d="M2,16.8L2,16.8v-0.2c0-0.3,0.1-0.7,0.3-0.9l5.6-6.2l7.5,8.5l-3.5,3.9L11.7,22H6.5l-0.3-0.2
		l-3.8-4.3C2.2,17.3,2,17,2,16.8z"/>
	<path id="path2" class="st1" d="M12.2,21.6l-0.2,0.2L11.7,22H6.5l-0.3-0.2l-0.2-0.2H12.2z"/>
	<path id="path1" class="st2" d="M15.7,2.3l5.9,6.8C21.9,9.3,22,9.7,22,10c0,0.3-0.1,0.6-0.3,0.8l-6,6.8L8.1,9.2l6.1-6.8
		C14.4,2.1,14.6,2,14.9,2C15.2,2,15.5,2.1,15.7,2.3z"/>
</g>
</svg>
