<svg id="eraser" xmlns="http://www.w3.org/2000/svg" viewBox="0 0 24 24"><defs><style>.cls-1{fill:#414141;}.cls-1,.cls-2{fill-rule:evenodd;}.cls-2{fill:#313131;}</style></defs><g id="path-group"><path id="path3" class="cls-1" d="M2,16.8H2v-.2a1.4,1.4,0,0,1,.3-.9L7.9,9.5,15.4,18l-3.5,3.9H6.5l-.3-.2L2.4,17.5A1.3,1.3,0,0,1,2,16.8Z"/><path id="path2" class="cls-2" d="M12.2,21.6l-.2.2-.3.2H6.5l-.3-.2L6,21.6Z"/><path id="path1" class="cls-2" d="M15.7,2.3l5.9,6.8a1.1,1.1,0,0,1,.4.9,1.1,1.1,0,0,1-.3.8l-6,6.8L8.1,9.2l6.1-6.8a.8.8,0,0,1,.7-.4A1.1,1.1,0,0,1,15.7,2.3Z"/></g></svg>