<?xml version="1.0" encoding="utf-8"?>
<!-- Generator: Adobe Illustrator 25.2.0, SVG Export Plug-In . SVG Version: 6.00 Build 0)  -->
<svg version="1.1" id="Layer_1" xmlns="http://www.w3.org/2000/svg" xmlns:xlink="http://www.w3.org/1999/xlink" x="0px" y="0px"
	 viewBox="0 0 24 24" style="enable-background:new 0 0 24 24;" xml:space="preserve">
<style type="text/css">
	.st0{fill-rule:evenodd;clip-rule:evenodd;fill:url(#SVGID_1_);}
	.st1{fill:url(#SVGID_2_);}
</style>
<linearGradient id="SVGID_1_" gradientUnits="userSpaceOnUse" x1="3.5593" y1="7.6193" x2="14.0941" y2="16.7203">
	<stop  offset="0" style="stop-color:#FFFFFF"/>
	<stop  offset="0.224" style="stop-color:#FAF2D0"/>
	<stop  offset="0.4697" style="stop-color:#F5E6A4"/>
	<stop  offset="0.6899" style="stop-color:#F1DD84"/>
	<stop  offset="0.8742" style="stop-color:#EFD870"/>
	<stop  offset="1" style="stop-color:#EED669"/>
</linearGradient>
<path class="st0" d="M15.9,15.3V5.1c0-0.6-0.3-1.1-0.7-1.5c-0.4-0.4-1-0.6-1.6-0.6l-11,0.9v15.8l0,1.2h10.9c0.1,0,0.1,0,0.2,0
	c0,0,0,0,0.1,0c0,0,0,0,0.1,0c0.1,0,0.1,0,0.2,0h0.4c0.5,0,1.1-0.2,1.5-0.5c0.4-0.3,0.6-0.8,0.6-1.3v-1.9c0-0.5-0.2-1-0.6-1.3"/>
<linearGradient id="SVGID_2_" gradientUnits="userSpaceOnUse" x1="20.915" y1="16.9248" x2="29.3735" y2="16.9248" gradientTransform="matrix(-1 0 0 -1 34.2886 24)">
	<stop  offset="3.782731e-07" style="stop-color:#FFFFFF"/>
	<stop  offset="7.060095e-03" style="stop-color:#F0F7FE"/>
	<stop  offset="2.981993e-02" style="stop-color:#C7E0FC"/>
	<stop  offset="5.528406e-02" style="stop-color:#A1CAFA"/>
	<stop  offset="8.292853e-02" style="stop-color:#80B8F8"/>
	<stop  offset="0.1134" style="stop-color:#64A9F6"/>
	<stop  offset="0.1476" style="stop-color:#4E9CF5"/>
	<stop  offset="0.1874" style="stop-color:#3D93F4"/>
	<stop  offset="0.2363" style="stop-color:#318CF3"/>
	<stop  offset="0.304" style="stop-color:#2A88F3"/>
	<stop  offset="0.4836" style="stop-color:#2887F3"/>
	<stop  offset="0.6797" style="stop-color:#2A88F3"/>
	<stop  offset="0.7504" style="stop-color:#318CF3"/>
	<stop  offset="0.8008" style="stop-color:#3C92F4"/>
	<stop  offset="0.8415" style="stop-color:#4D9CF5"/>
	<stop  offset="0.8764" style="stop-color:#63A8F6"/>
	<stop  offset="0.9073" style="stop-color:#7FB7F8"/>
	<stop  offset="0.9352" style="stop-color:#9FC9FA"/>
	<stop  offset="0.9609" style="stop-color:#C5DEFC"/>
	<stop  offset="0.9838" style="stop-color:#EEF5FE"/>
	<stop  offset="0.9922" style="stop-color:#FFFFFF"/>
</linearGradient>
<path class="st1" d="M11.5,9.8l-1.9,1.3V9.3C8.5,9,7.4,8.4,6.6,7.5C5.5,6.2,4.9,4.6,4.9,3h1.6c0,0.8,0.2,1.7,0.6,2.4
	c0.5,1,1.4,1.8,2.5,2V5.9l1.9,1.3l1.9,1.3L11.5,9.8z"/>
</svg>
