<?xml version="1.0" encoding="utf-8"?>
<!-- Generator: Adobe Illustrator 25.2.0, SVG Export Plug-In . SVG Version: 6.00 Build 0)  -->
<svg version="1.1" id="Layer_1" xmlns="http://www.w3.org/2000/svg" xmlns:xlink="http://www.w3.org/1999/xlink" x="0px" y="0px"
	 viewBox="0 0 24 24" style="enable-background:new 0 0 24 24;" xml:space="preserve">
<style type="text/css">
	.st0{fill:url(#SVGID_1_);}
	.st1{fill:url(#SVGID_2_);stroke:#000000;stroke-width:0.5;stroke-miterlimit:10;}
	.st2{fill:none;stroke:#000000;stroke-miterlimit:10;}
	.st3{fill:#4387BC;}
</style>
<g>
	
		<linearGradient id="SVGID_1_" gradientUnits="userSpaceOnUse" x1="12.7269" y1="10.3012" x2="0.5267" y2="17.345" gradientTransform="matrix(0.9955 9.424253e-02 -9.424253e-02 0.9955 1.4709 -0.5618)">
		<stop  offset="0" style="stop-color:#4387BC"/>
		<stop  offset="3.546047e-02" style="stop-color:#4588BD"/>
		<stop  offset="4.823312e-02" style="stop-color:#4C8DBF"/>
		<stop  offset="5.734004e-02" style="stop-color:#5795C4"/>
		<stop  offset="6.470478e-02" style="stop-color:#68A0CA"/>
		<stop  offset="7.100996e-02" style="stop-color:#7EAED3"/>
		<stop  offset="7.659627e-02" style="stop-color:#9AC0DD"/>
		<stop  offset="8.164873e-02" style="stop-color:#BAD5E9"/>
		<stop  offset="8.613545e-02" style="stop-color:#DEEDF7"/>
		<stop  offset="8.833037e-02" style="stop-color:#F3FBFF"/>
		<stop  offset="0.111" style="stop-color:#DEEDF7"/>
		<stop  offset="0.1573" style="stop-color:#BAD5E9"/>
		<stop  offset="0.2094" style="stop-color:#9AC0DD"/>
		<stop  offset="0.2671" style="stop-color:#7EAED3"/>
		<stop  offset="0.3322" style="stop-color:#68A0CA"/>
		<stop  offset="0.4082" style="stop-color:#5795C4"/>
		<stop  offset="0.5022" style="stop-color:#4C8DBF"/>
		<stop  offset="0.634" style="stop-color:#4588BD"/>
		<stop  offset="1" style="stop-color:#4387BC"/>
	</linearGradient>
	<path class="st0" d="M8.7,11.5c0,0-2.3,0.3-2.8,0.9c-1,1.1-0.8,8.2-0.8,8.2l-1.5,0.3l-0.7-0.3l-0.7,0.3c0,0-0.3-8,0.5-9.9
		c0.2-0.5,0.5-1,0.8-1.3C4,8.9,5,8.6,5.3,8.6l7.1,0.7l-1.3,2.8L8.7,11.5z"/>
	
		<linearGradient id="SVGID_2_" gradientUnits="userSpaceOnUse" x1="8.181" y1="13.688" x2="19.4953" y2="13.688" gradientTransform="matrix(0.6927 -0.7213 0.7213 0.6927 -5.2587 12.6525)">
		<stop  offset="0" style="stop-color:#4387BC"/>
		<stop  offset="0.3046" style="stop-color:#F3FBFF"/>
		<stop  offset="0.4943" style="stop-color:#F3FBFF"/>
		<stop  offset="0.6898" style="stop-color:#F3FBFF"/>
		<stop  offset="0.7646" style="stop-color:#C6DDEE"/>
		<stop  offset="0.9268" style="stop-color:#68A0CA"/>
		<stop  offset="1" style="stop-color:#4387BC"/>
	</linearGradient>
	<polygon class="st1" points="22.2,12.2 14.5,20.3 6.2,12.2 13.9,4 	"/>
	<ellipse cx="14.2" cy="12.2" rx="0.9" ry="0.9"/>
	<line class="st2" x1="14.2" y1="12.4" x2="13.9" y2="4.2"/>
	<polygon class="st3" points="24.1,20.3 -0.1,20.3 -0.1,24 24.1,24 	"/>
</g>
</svg>
