<svg id="Layer_1" data-name="Layer 1" xmlns="http://www.w3.org/2000/svg" xmlns:xlink="http://www.w3.org/1999/xlink" viewBox="0 0 24 24"><defs><style>.cls-1{fill:#e8b826;}.cls-1,.cls-3{fill-rule:evenodd;}.cls-2{fill:#f5f5f5;}.cls-3{fill:#ffca28;}.cls-4{fill:url(#linear-gradient);}</style><linearGradient id="linear-gradient" x1="12.91503" y1="6.07523" x2="21.37361" y2="6.07523" gradientUnits="userSpaceOnUse"><stop offset="0.01397"/><stop offset="0.01854" stop-color="#020505"/><stop offset="0.06895" stop-color="#123638"/><stop offset="0.12175" stop-color="#216264"/><stop offset="0.17598" stop-color="#2e868a"/><stop offset="0.23201" stop-color="#38a4a9"/><stop offset="0.29047" stop-color="#40bcc1"/><stop offset="0.35234" stop-color="#46ccd2"/><stop offset="0.41992" stop-color="#49d6dc"/><stop offset="0.50404" stop-color="#4ad9df"/><stop offset="0.58916" stop-color="#49d6dc"/><stop offset="0.65756" stop-color="#46ccd2"/><stop offset="0.72017" stop-color="#40bcc1"/><stop offset="0.77933" stop-color="#38a4a9"/><stop offset="0.83603" stop-color="#2e868a"/><stop offset="0.89092" stop-color="#216264"/><stop offset="0.94436" stop-color="#123638"/><stop offset="0.99537" stop-color="#020505"/><stop offset="1"/></linearGradient></defs><path class="cls-1" d="M15.92891,15.31769V5.0926a2.01189,2.01189,0,0,0-.69842-1.50124,2.51556,2.51556,0,0,0-1.58592-.622L2.66438,3.88047V19.72725l-.038,1.19681h10.9231c.06135,0,.1227-.00243.18384-.0067.02466-.00172.04929-.00393.07389-.00647q.03351.00369.06716.00629.08883.00684.17806.00688H16.4751a2.19929,2.19929,0,0,0,1.46447-.54326,1.753,1.753,0,0,0,.60833-1.3079V17.16885a1.75294,1.75294,0,0,0-.60833-1.30787,2.19932,2.19932,0,0,0-1.46447-.54329Z"/><path class="cls-2" d="M8.44138,4.24653h4.53526a.84866.84866,0,0,1,.84866.84866V16.39352a.84866.84866,0,0,1-.84866.84866H8.44138a.84869.84869,0,0,1-.84869-.84869V5.09522a.84869.84869,0,0,1,.84869-.84869Z"/><path class="cls-3" d="M9.5132,21.96982,2.66438,20.9287V3.88047l7.63311,1.16034a2.6093,2.6093,0,0,1,2.21715,2.57967V19.39015A2.6093,2.6093,0,0,1,9.5132,21.96982Z"/><path class="cls-4" d="M14.7681,8.83005l1.85308,1.32041V8.29883a6.39726,6.39726,0,0,0,3.08851-1.84607A6.56255,6.56255,0,0,0,21.373,2H19.779a5.55924,5.55924,0,0,1-.63578,2.42976,3.75993,3.75993,0,0,1-2.522,2.01522V4.86881L14.7681,6.18923,12.915,7.50964Z"/></svg>