<?xml version="1.0" encoding="utf-8"?>
<!-- Generator: Adobe Illustrator 25.2.0, SVG Export Plug-In . SVG Version: 6.00 Build 0)  -->
<svg version="1.1" id="Layer_1" xmlns="http://www.w3.org/2000/svg" xmlns:xlink="http://www.w3.org/1999/xlink" x="0px" y="0px"
	 viewBox="0 0 24 24" style="enable-background:new 0 0 24 24;" xml:space="preserve">
<style type="text/css">
	.st0{fill:#4387BC;}
	.st1{fill:#414141;}
</style>
<path class="st0" d="M18.7,3.7H5.3c-0.9,0-1.7,0.8-1.7,1.7v15L7,17h11.7c0.9,0,1.7-0.8,1.7-1.7v-10C20.3,4.4,19.6,3.7,18.7,3.7z
	 M18.7,15.3H6.3l-0.5,0.5l-0.5,0.5v-11h13.3v10H18.7z"/>
<g>
	<polygon class="st1" points="10.8,13.6 17,13.6 17,11.9 12.4,11.9 	"/>
	<path class="st1" d="M14,8.7c0.2-0.2,0.2-0.4,0-0.6l-1.5-1.5c-0.2-0.2-0.4-0.2-0.6,0L7,11.5v2.1h2.1C9.1,13.6,14,8.7,14,8.7z"/>
</g>
</svg>
