<?xml version="1.0" encoding="utf-8"?>
<!-- Generator: Adobe Illustrator 25.2.0, SVG Export Plug-In . SVG Version: 6.00 Build 0)  -->
<svg version="1.1" id="Layer_1" xmlns="http://www.w3.org/2000/svg" xmlns:xlink="http://www.w3.org/1999/xlink" x="0px" y="0px"
	 viewBox="0 0 24 24" style="enable-background:new 0 0 24 24;" xml:space="preserve">
<style type="text/css">
	.st0{fill:#414141;}
</style>
<path class="st0" d="M18.3,3h-3.8C14.2,2,13.2,1.2,12,1.2S9.8,2,9.5,3H5.7c-1,0-1.8,0.9-1.8,1.8v14.5c0,1,0.9,1.8,1.8,1.8h12.7
	c1,0,1.8-0.9,1.8-1.8V4.8C20.1,3.8,19.4,3,18.3,3z M12,3c0.5,0,0.9,0.4,0.9,0.9S12.5,4.8,12,4.8s-0.9-0.3-0.9-0.9S11.5,3,12,3z
	 M18.3,19.4H5.7V4.8h1.8v2.7h9V4.8h1.8v14.6H18.3z"/>
</svg>
