<svg id="Layer_1" data-name="Layer 1" xmlns="http://www.w3.org/2000/svg" xmlns:xlink="http://www.w3.org/1999/xlink" viewBox="0 0 24 24"><defs><style>.cls-1{fill:url(#linear-gradient);}.cls-2{fill:#313131;}.cls-3{fill:url(#linear-gradient-2);}.cls-4{fill:#f7f8f8;}.cls-5{fill:url(#linear-gradient-3);}.cls-6{fill:#919191;}.cls-7{fill:url(#linear-gradient-4);}.cls-8{fill:#525252;}.cls-9{fill:none;stroke:#d7d6d6;stroke-miterlimit:10;stroke-width:3px;opacity:0.1;}.cls-10{fill:url(#linear-gradient-5);}</style><linearGradient id="linear-gradient" x1="3.24467" y1="18.27748" x2="11.40068" y2="18.27748" gradientUnits="userSpaceOnUse"><stop offset="0" stop-color="#525252"/><stop offset="0.07241" stop-color="#545454"/><stop offset="0.11216" stop-color="#5b5c5c"/><stop offset="0.1363" stop-color="#646566"/><stop offset="0.16177" stop-color="#606162"/><stop offset="0.28742" stop-color="#525252"/><stop offset="0.94359" stop-color="#4f5464"/></linearGradient><linearGradient id="linear-gradient-2" x1="1.37636" y1="19.91513" x2="7.95296" y2="19.91513" xlink:href="#linear-gradient"/><linearGradient id="linear-gradient-3" x1="9.57906" y1="14.98242" x2="14.03874" y2="7.25802" gradientUnits="userSpaceOnUse"><stop offset="0" stop-color="#383d49"/><stop offset="0.05515" stop-color="#3a3f4b"/><stop offset="0.08546" stop-color="#424753"/><stop offset="0.10973" stop-color="#4e5461"/><stop offset="0.13079" stop-color="#606675"/><stop offset="0.14961" stop-color="#777e8e"/><stop offset="0.16113" stop-color="#8990a1"/><stop offset="0.19049" stop-color="#7b8396"/><stop offset="0.23279" stop-color="#6b758a"/><stop offset="0.6519" stop-color="#5c6375"/><stop offset="0.94359" stop-color="#4f5464"/></linearGradient><linearGradient id="linear-gradient-4" x1="16.78815" y1="14.33684" x2="20.25328" y2="20.10378" xlink:href="#linear-gradient"/><linearGradient id="linear-gradient-5" x1="6.8749" y1="19.98774" x2="4.31269" y2="16.93638" gradientUnits="userSpaceOnUse"><stop offset="0" stop-color="#313131"/><stop offset="0.20353" stop-color="#3c3c3c"/><stop offset="0.48666" stop-color="#525252"/><stop offset="0.70919" stop-color="#b0b1b1"/><stop offset="0.71718" stop-color="#b8b9b9"/><stop offset="0.74736" stop-color="#d2d3d3"/><stop offset="0.78079" stop-color="#e6e6e6"/><stop offset="0.81875" stop-color="#f4f4f4"/><stop offset="0.86508" stop-color="#fdfdfd"/><stop offset="0.94359" stop-color="#fff"/></linearGradient></defs><polygon class="cls-1" points="9.208 20.729 11.401 19.455 11.394 19.081 5.756 15.826 3.245 17.286 9.208 20.729"/><polygon class="cls-2" points="1.376 18.372 1.376 18.557 7.34 22 7.341 21.815 1.376 18.372"/><polygon class="cls-3" points="3.291 18.767 1.989 18.015 1.376 18.372 7.341 21.815 7.953 21.459 7.388 21.133 7.229 21.041 3.291 18.767"/><polygon class="cls-4" points="11.398 18.601 7.036 21.141 1.933 18.195 6.825 15.352 11.395 17.967 11.398 18.601"/><path class="cls-5" d="M21.21754,11.44433l-6.08511,3.5814a2.75921,2.75921,0,0,0-1.35967,2.37792h0L2.7201,10.96955v0A2.71469,2.71469,0,0,1,4.08849,8.61219L10.26976,5.082Z"/><path class="cls-6" d="M12.40126,5.09966,20.411,9.74722l1.20785-2.65028a1.09229,1.09229,0,0,0-.44022-1.39452L15.13989,2.151a1.09231,1.09231,0,0,0-1.53692.46569Z"/><path class="cls-7" d="M21.5557,11.24532l.8124.64717a.65187.65187,0,0,1,.24571.50833l.01,4.27133-8.784,4.56862-.067-3.83712a2.75921,2.75921,0,0,1,1.35967-2.37792Z"/><polygon class="cls-2" points="13.789 18.329 13.778 17.685 2.609 11.09 2.449 11.66 13.789 18.329"/><path class="cls-6" d="M13.78823,18.28939,2.4492,11.66005,2.45653,14.257a.52358.52358,0,0,0,.21877.47937l11.1645,6.5044"/><polygon class="cls-8" points="10.163 4.173 10.163 5.153 21.053 11.54 21.053 10.482 10.163 4.173"/><polygon class="cls-8" points="10.572 3.815 21.592 10.192 21.053 10.482 10.163 4.173 10.572 3.815"/><line class="cls-9" x1="10.16337" y1="4.17309" x2="21.21754" y2="10.57714"/><polygon class="cls-6" points="21.592 10.192 21.053 10.482 21.053 11.54 21.556 11.245 21.592 10.192"/><polygon class="cls-10" points="4.529 19.059 5.42 18.508 4.392 17.683 5.759 18.04 5.968 17.283 6.309 18.219 7.199 18.508 6.309 18.797 6.309 19.732 5.759 18.975 4.529 19.059"/></svg>