<svg id="Layer_1" data-name="Layer 1" xmlns="http://www.w3.org/2000/svg" viewBox="0 0 24 24"><defs><style>.cls-1{fill:#4388bc;}.cls-2{fill:#919191;}</style></defs><path class="cls-1" d="M3.2,14.9,1.7,16l1.4.5a5.6,5.6,0,0,0,.7,2.9,5,5,0,0,0,3,2.5l.4-1.2a6,6,0,0,1-1.7-1.2A3.2,3.2,0,0,1,4.6,17l1.2.4-.5-1.8-.6-1.8Z"/><path class="cls-1" d="M21,8.6l1.1-1.5H20.6a5.5,5.5,0,0,0-1.5-2.6,5.3,5.3,0,0,0-3.6-1.5V4.2a4.9,4.9,0,0,1,2,.6A2.9,2.9,0,0,1,19,7H17.7l1.1,1.6,1,1.6Z"/><polygon class="cls-1" points="12 0 12 24 24 24 12 0"/><polygon class="cls-2" points="12 24 0 0 12 0 12 24"/></svg>