<svg id="Layer_1" data-name="Layer 1" xmlns="http://www.w3.org/2000/svg" viewBox="0 0 24 24"><defs><style>.cls-1{fill:#8643ef;}.cls-2{fill:#4100a8;}.cls-3{fill:#320093;}.cls-4{fill:#bda3ef;}.cls-5{fill:#fff;}.cls-6{fill:#c7a9f7;}.cls-7{fill:none;stroke:#fff;stroke-miterlimit:10;stroke-width:0.1px;}.cls-8{fill:#ffe27f;}.cls-9{fill:#efa98e;}.cls-10{fill:#212121;}.cls-11{fill:#5e8463;}.cls-12{fill:#c46463;}</style></defs><polygon class="cls-1" points="3 2.1 21 2.1 21 21.5 16.5 21.5 16.5 16.2 7.5 16.2 7.5 21.5 4.8 21.5 3 19.5 3 2.1"/><path class="cls-2" d="M3,2H21V21.5H16.4V16.2H7.6v5.3H4.7L3,19.5Zm17.9.2H3.1V19.4l1.7,2H7.4V16.1h9.2v5.3h4.3Z"/><rect class="cls-3" x="7.5" y="16.11" width="9" height="4.89"/><rect class="cls-4" x="7.8" y="16.09" width="8.4" height="5.81"/><path class="cls-2" d="M9,17.2h2.1v3.9H9Z"/><rect class="cls-5" x="4.8" y="5" width="14.5" height="8.5"/><path class="cls-2" d="M4.7,4.9H19.4v8.7H4.7Zm14.6.2H4.9v8.3H19.3Z"/><rect class="cls-6" x="5.5" y="5.9" width="13" height="6.82"/><line class="cls-7" x1="17.6" y1="11.8" x2="6.5" y2="11.8"/><line class="cls-7" x1="17.6" y1="10.7" x2="6.5" y2="10.7"/><line class="cls-7" x1="17.6" y1="9.7" x2="6.5" y2="9.7"/><line class="cls-7" x1="17.6" y1="8.7" x2="6.5" y2="8.7"/><line class="cls-7" x1="17.6" y1="7.6" x2="6.5" y2="7.6"/><line class="cls-7" x1="17.6" y1="6.6" x2="6.5" y2="6.6"/><rect class="cls-8" x="9.44099" y="10.92236" width="1.78882" height="12.67743"/><polygon class="cls-9" points="10.783 9.694 9.888 9.694 9.441 10.922 11.23 10.922 10.783 9.694"/><polygon class="cls-10" points="9.888 9.7 10.783 9.7 10.335 8.472 9.888 9.7"/><rect class="cls-11" x="9.44099" y="21.82298" width="1.78882" height="0.68092"/><rect class="cls-12" x="9.44099" y="22.94099" width="1.78882" height="0.6588"/></svg>