<svg id="Layer_1" data-name="Layer 1" xmlns="http://www.w3.org/2000/svg" viewBox="0 0 24 24"><defs><style>.cls-1{fill:#414141;}</style></defs><path class="cls-1" d="M17.6,4.3H15.3V2h2.3Zm-2.3,11V22l2.6-2.5L20.4,22,22,20.4l-2.5-2.5L22,15.3Zm4.4-6.6H22V6.4H19.7Zm0,4.4H22V10.8H19.7ZM10.9,22h2.3V19.7H10.9ZM6.4,4.3H8.7V2H6.4ZM2,17.6H4.3V15.3H2ZM4.3,22V19.7H2A2.2,2.2,0,0,0,4.3,22ZM19.7,2V4.3H22A2.2,2.2,0,0,0,19.7,2ZM10.9,4.3h2.3V2H10.9ZM2,8.7H4.3V6.4H2ZM6.4,22H8.7V19.7H6.4ZM2,13.1H4.3V10.8H2ZM2,4.3H4.3V2A2.2,2.2,0,0,0,2,4.3Z"/></svg>